<?xml version="1.0" encoding="utf-8"?>
<!-- Generator: Adobe Illustrator 27.2.0, SVG Export Plug-In . SVG Version: 6.00 Build 0)  -->
<svg version="1.1" id="Livello_1" xmlns="http://www.w3.org/2000/svg" xmlns:xlink="http://www.w3.org/1999/xlink" x="0px" y="0px"
	 viewBox="0 0 454 415.3" style="enable-background:new 0 0 454 415.3;" xml:space="preserve">
<style type="text/css">
	.st0{fill:#1C355A;}
	.st1{fill:none;}
	.st2{enable-background:new    ;}
	.st3{fill:#1C355A;stroke:#1C355A;stroke-miterlimit:10;}
</style>
<rect x="6.1" y="126.5" class="st0" width="440.9" height="2.5"/>
<path class="st0" d="M226.9,328.2c-25.2,0-49.2-7.2-69.2-20.9c-19.4-13.2-33.9-32-40.8-52.9l2.4-0.8c14,42.4,58.2,72.1,107.6,72.1
	s93.7-29.6,107.6-72.1l2.4,0.8c-6.9,20.9-21.4,39.7-40.8,52.9C276.1,320.9,252.1,328.2,226.9,328.2z"/>
<path class="st0" d="M344.3,57.4l-45.8-46.2c0,0-2.5-2.2-4.7,0s15.3,45,32.8,50.2c9.1,2.7,13.7,1.6,16,0
	c21.9,18.1,39.4,41.3,50.8,67.2l3.9-1.7C385.4,100,367.1,76,344.3,57.4z"/>
<path class="st0" d="M173,26.6l-37.6,21.9c-0.7,0.4-1.2-0.5-0.6-0.9l35.4-25.5c0.4-0.3,0.1-0.9-0.4-0.6l-37.7,22
	c-0.7,0.4-1.2-0.5-0.6-0.9l35.4-25.5c0.4-0.3,0.1-0.9-0.4-0.6l-37.7,22c-0.7,0.4-1.2-0.5-0.6-0.9l35.3-25.4c0.6-0.4,0.1-1.2-0.6-0.9
	l-43.9,23c0,0,0,0-0.1,0c-7.1,4.6-9.7,13.3-6.1,19.8c-24.7,19.1-44.4,44.2-56.9,72.7l3.9,1.7c12.2-27.8,31.4-52.4,55.6-71.1
	c4.8,4.4,12.7,4.9,19.1,0.8c0,0,0,0,0.1,0l39.1-30.8C174.1,27,173.6,26.2,173,26.6z"/>
<path class="st0" d="M116.4,127.7c0,0,8.3-12.7,10.3-12.5c2,0.2,7,5.5,11,4.3s13.5-11,18-10.5s5.5,9.5,17,5.5s33.1-24.8,38.1-25.8
	s6,7.5,9.5,6.5s7.8-5.9,13.8-3.6s35.3,26.4,40.3,25.9s18.3-6.8,22-5.5c3.8,1.2,17,13.7,24.3,15.7H116.4z"/>
<path class="st0" d="M333.6,258.9c0,0-4.2,2.4-18,2.4c-7.2,0-11.1-1.1-14.8-2.2c-3.6-1-7.4-2.1-13.8-2.1s-10.2,1-14.2,2.1
	c-4.1,1.1-8.4,2.2-16,2.2c-7.9,0-12.5-1.2-17-2.3c-3.9-1-7.5-1.9-12.8-1.9s-8.9,0.9-12.8,1.9c-4.5,1.2-9.2,2.3-17,2.3
	c-7.6,0-11.9-1.1-16-2.2c-4-1.1-7.8-2.1-14.2-2.1c-6.5,0-10.2,1.1-13.8,2.1c-3.8,1.1-7.7,2.2-14.8,2.2c-13.7,0-17.9-2.4-18-2.4
	l-0.4,0.7l-0.4,0.7c0.2,0.1,4.5,2.7,18.9,2.7c7.4,0,11.4-1.1,15.3-2.2c3.7-1,7.1-2,13.4-2c6.2,0,9.9,1,13.8,2
	c4.2,1.1,8.6,2.3,16.4,2.3c8.1,0,13.1-1.3,17.5-2.4c3.8-1,7.3-1.9,12.4-1.9s8.6,0.9,12.4,1.9c4.4,1.1,9.4,2.4,17.5,2.4
	c7.8,0,12.2-1.2,16.4-2.3c3.9-1,7.6-2,13.8-2c6.2,0,9.7,1,13.4,2c3.9,1.1,7.9,2.2,15.3,2.2c14.3,0,18.7-2.6,18.8-2.7L333.6,258.9z"
	/>
<path class="st0" d="M275.2,266.2c-4.4,1.2-8.9,2.3-16.9,2.3c-8.3,0-13.3-1.3-18-2.5c-4-1-7.9-2-13.3-2c-5.5,0-9.3,1-13.3,2
	c-4.8,1.2-9.7,2.5-18,2.5c-8,0-12.6-1.2-16.9-2.3c-4.2-1.1-8.1-2.1-14.8-2.1v0.8c6.6,0,10.5,1,14.6,2.1c4.4,1.2,9,2.4,17.1,2.4
	c8.5,0,13.7-1.3,18.2-2.5c4-1,7.8-2,13.1-2c5.4,0,9.1,1,13.1,2c4.6,1.2,9.8,2.5,18.2,2.5c8.2,0,12.7-1.2,17.1-2.4
	c4.1-1.1,8-2.1,14.6-2.1v-0.8C283.3,264.1,279.4,265.1,275.2,266.2z"/>
<path class="st0" d="M335.8,252.7h-2.1l-0.3,0.2c0,0-4.2,2.4-17.8,2.4c-7.1,0-11-1.1-14.7-2.2c-3.7-1-7.4-2.1-14-2.1
	c-6.5,0-10.4,1.1-14.3,2.1c-4.1,1.1-8.3,2.2-15.9,2.2c-7.8,0-12.5-1.2-16.9-2.3c-3.9-1-7.6-1.9-12.9-1.9c-5.3,0-9,0.9-12.9,1.9
	c-4.5,1.1-9.1,2.3-16.9,2.3c-7.5,0-11.8-1.1-15.9-2.2c-3.9-1-7.8-2.1-14.3-2.1s-10.3,1.1-14,2.1c-3.7,1.1-7.6,2.2-14.7,2.2
	c-13.5,0-17.7-2.3-17.7-2.4l-0.3-0.2h-2.1H6.1v2.5h112h1.4c1.3,0.6,6.3,2.6,18.7,2.6c7.5,0,11.5-1.1,15.4-2.2c3.6-1,7.1-2,13.3-2
	c6.1,0,9.8,1,13.7,2c4.3,1.1,8.7,2.3,16.5,2.3c8.2,0,13.2-1.3,17.6-2.4c3.7-1,7.3-1.9,12.3-1.9s8.5,0.9,12.3,1.9
	c4.4,1.1,9.4,2.4,17.6,2.4c7.9,0,12.3-1.2,16.5-2.3c3.9-1,7.5-2,13.7-2s9.6,1,13.3,2c3.9,1.1,7.9,2.2,15.4,2.2
	c12.4,0,17.4-1.9,18.7-2.6H447v-2.5L335.8,252.7L335.8,252.7z"/>
<path class="st0" d="M401.1,253.4c-22.7,76.7-94.5,130.3-174.6,130.3S74.7,330.1,52,253.4l-4.1,1.2c11.2,37.7,34.7,71.7,66.2,95.6
	c29.2,22.2,63.5,34.9,99.9,37.3c-0.3,1.2-0.5,2.4-0.5,3.6c0,7.2,5.9,13.1,13.1,13.1c7.2,0,13.1-5.9,13.1-13.1c0-1.3-0.2-2.5-0.5-3.6
	c36.3-2.4,70.6-15.2,99.8-37.3c31.5-23.9,55-57.9,66.2-95.6L401.1,253.4z"/>
<rect x="-352.7" y="-22" class="st1" width="333" height="204"/>
<g class="st2">
	<path class="st3" d="M265.9,165.6c0.6,0,1.2,0.2,1.8,0.3c1.1,0.4,1.9,0.9,2.6,1.7c0.7,0.8,1.1,1.6,1.4,2.5c0.3,0.9,0.5,1.9,0.5,2.8
		c0,0.2,0,0.4,0,0.7c0,0.7-0.1,1.4-0.2,2.1c-0.1,0.9-0.3,1.6-0.6,2.3c-0.2,0.6-0.5,1.1-0.9,1.5h-0.1c-0.4,0-0.6-0.1-0.7-0.3
		c-0.1-0.2-0.2-0.4-0.2-0.7c0,0,0-0.1,0-0.1c0,0,0.1-0.1,0.2-0.3c0.1-0.2,0.2-0.4,0.3-0.6c0.2-0.5,0.4-1.2,0.5-2
		c0.1-0.6,0.1-1.2,0.1-1.8c0-1-0.1-2.1-0.4-3.1c-0.2-0.8-0.6-1.4-1.1-2c-0.5-0.6-1.1-1-2-1.2c-0.5-0.2-1.2-0.3-1.9-0.3
		c-0.4,0-1,0-1.9,0.1c-0.9,0.1-2.3,0.5-4.1,1.3c-2.4,1-4.6,2.5-6.6,4.4c-2,1.9-3.7,4.1-5.2,6.6c-1.5,2.5-2.7,5.1-3.6,7.8
		c-1.4,4.1-2.1,8-2.1,11.7c0,0,0,1,0,2.8c0,1.9,0.8,3.9,2.2,6c1.6,2.1,3.3,3.4,5.2,4c1.1,0.4,2.3,0.5,3.5,0.5c0.8,0,1.7-0.1,2.5-0.3
		c2.1-0.4,4.2-1.1,6.3-2.2c2.1-1,4-2.2,5.7-3.4c1.7-1.2,3.6-2.9,5.7-5.1c2.1-2.1,4.1-4.3,6.1-6.6c2-2.2,3.6-4.1,4.9-5.7l1.9-2.3
		c0.2-0.1,0.4-0.2,0.6-0.2c0.1,0,0.3,0.1,0.4,0.2c0.1,0.2,0.2,0.4,0.2,0.9l-1.9,2.4c-1.3,1.6-2.9,3.5-4.9,5.7c-2,2.2-4,4.5-6.2,6.6
		c-2.1,2.2-4.1,3.9-6,5.2c-1.8,1.3-3.7,2.5-5.9,3.5c-2.2,1.1-4.4,1.9-6.7,2.3c-0.9,0.2-1.8,0.3-2.7,0.3c-1.4,0-3-0.3-4.8-0.8
		c-1.8-0.6-3.6-2-5.3-4.3c-1.7-2.5-2.6-5.7-2.6-9.5c0,0,0-1,0-3c0-2,0.7-5.1,2.2-9.4c1-2.8,2.2-5.5,3.8-8.1c1.5-2.6,3.4-4.9,5.4-6.9
		c2.1-2,4.4-3.6,7-4.7c2.6-1.1,4.7-1.6,6.5-1.6C265.4,165.6,265.7,165.6,265.9,165.6z"/>
	<path class="st3" d="M290.2,184.6h0.2c0.5,0,1,0.1,1.5,0.3c1.2,0.5,1.9,1.3,2.2,2.5c0.1,0.4,0.1,0.8,0.1,1.3c0,0.8-0.1,1.5-0.4,2.4
		c-0.3,0.9-0.7,1.8-1.3,2.6c0.6-0.2,1.2-0.5,1.7-0.9c1-0.6,1.8-1.3,2.6-2c0.8-0.7,1.4-1.3,1.9-1.8l0.7-0.8c0.3,0,0.5,0.1,0.7,0.2
		c0.2,0.1,0.4,0.4,0.4,0.8l-0.7,0.8c-0.5,0.5-1.2,1.2-2,1.9c-0.8,0.7-1.8,1.5-2.8,2.2c-1.4,0.9-2.8,1.5-4.4,1.8
		c-0.7,0.7-1.6,1.2-2.5,1.7c-0.7,0.3-1.2,0.5-1.8,0.5c-0.1,0-0.2,0-0.2,0c-0.7-0.1-1.2-0.4-1.5-0.8c-0.3-0.5-0.6-1-0.7-1.5
		c-0.1-0.4-0.1-0.9-0.1-1.3v-0.4c0.1-1.5,0.3-2.8,0.5-3.8c0-0.2,0.1-0.3,0.1-0.5l0-0.2c0,0,0-0.1,0-0.1c0-0.1,0-0.1,0-0.2
		c0-0.1,0-0.1,0-0.1v-0.1l0,0c0.3-0.7,0.6-1.4,1.1-2c0.5-0.7,1.2-1.2,2-1.6C288.5,184.9,289.3,184.7,290.2,184.6z M285.4,193.6v0.2
		c0,0.1,0,0.1,0,0.2c0,1.1,0.1,1.9,0.4,2.3c0.1,0.1,0.1,0.1,0.2,0.2c0.1,0,0.2,0.1,0.3,0.1h0.1c0.3,0,0.6-0.1,1.2-0.3
		c0.2-0.1,0.3-0.2,0.5-0.3c0.1-0.1,0.2-0.1,0.3-0.2C287.2,195.4,286.3,194.7,285.4,193.6z M290.2,186.1c-1.2,0.1-2.3,0.7-3.2,1.8
		c-0.4,0.5-0.7,1-0.9,1.6c0,0,0,0.1,0,0.2c0,0.1,0,0.2-0.1,0.3c0,0.1-0.1,0.3-0.1,0.4c0,0.1,0,0.3,0,0.4c0,0.6,0.2,1.1,0.5,1.6
		c0.5,0.8,1.1,1.3,1.7,1.6c0.5,0.3,1.1,0.4,1.7,0.4h0.3c1.2-1.2,2-2.4,2.4-3.8c0.2-0.7,0.3-1.4,0.3-2c0-0.3,0-0.6-0.1-0.9
		c-0.1-0.7-0.6-1.2-1.2-1.4C291,186.2,290.7,186.1,290.2,186.1L290.2,186.1z"/>
	<path class="st3" d="M307.3,185.2c0.3,0,0.6,0.1,0.8,0.3c0.4,0.4,0.7,0.8,0.7,1.4c0,0.2,0,0.4,0,0.7c0,1-0.2,2.4-0.7,4
		c-0.3,1.1-0.5,1.9-0.5,2.5c0,0.2,0,0.3,0,0.5c0,0.3,0.1,0.5,0.2,0.6s0.2,0.2,0.3,0.2c0.1,0,0.1,0,0.2,0c0.2,0,0.6-0.1,1-0.3
		c0.6-0.3,1.4-0.9,2.2-1.7l5.7-6c0.1,0,0.2,0,0.2,0c0.2,0,0.4,0,0.6,0.1c0.2,0.1,0.3,0.3,0.3,0.8v0.2l-5.7,6c-0.9,0.9-1.7,1.6-2.5,2
		c-0.6,0.3-1.1,0.4-1.6,0.4c-0.3,0-0.6,0-0.8-0.1c-0.8-0.4-1.3-1-1.4-2c0-0.2,0-0.4,0-0.7c0-0.8,0.2-1.8,0.5-2.9
		c0.4-1.6,0.7-2.8,0.7-3.6c0-0.2,0-0.3,0-0.4c0-0.1,0-0.2-0.1-0.3c0-0.1-0.1-0.1-0.1-0.1h0c0,0,0,0,0,0c0,0,0,0,0,0c0,0,0,0-0.1,0
		c0,0,0,0-0.1,0c-0.5,0.2-1.5,1-2.9,2.6c-1.3,1.6-3,4-4.9,7.2c-0.1,0.2-0.3,0.4-0.6,0.4h-0.1c-0.2,0-0.4-0.1-0.5-0.2
		c-0.1-0.1-0.2-0.3-0.2-0.5c0-0.1,0-0.1,0-0.2l1.6-8.2c0.3-0.2,0.5-0.3,0.7-0.3c0.3,0,0.6,0.2,0.8,0.6l-0.8,4.4c1-1.6,2-3,2.9-4
		c1.3-1.7,2.5-2.7,3.5-3.1C306.7,185.3,307,185.2,307.3,185.2L307.3,185.2z"/>
	<path class="st3" d="M320.9,183.1c0.4,0,0.6,0.2,0.7,0.5c0,0.1,0.1,0.2,0.1,0.3c0,0.2-0.1,0.4-0.3,0.6l-1.4,1.2c-0.9,1-1.4,2-1.5,3
		c0,0.2,0,0.5,0,0.7c0,0.5,0.1,1,0.2,1.7c0.1,0.6,0.3,1.3,0.6,2c0.1,0.3,0.3,0.7,0.4,1l0,0.1c0.1-0.1,0.2-0.1,0.3-0.2
		c1.3-0.7,2.6-1.6,4-2.6c1.4-1,2.5-2.1,3.3-3.3c0.2-0.1,0.3-0.1,0.5-0.1c0.5,0,0.7,0.3,0.8,0.9c-0.9,1.4-2.1,2.6-3.5,3.6
		c-1.4,1-2.7,1.9-4,2.6c-0.3,0.1-0.5,0.3-0.8,0.4c0,0.1,0.1,0.2,0.1,0.3c0.1,0.3,0.3,0.6,0.4,0.9c0.1,0.2,0.2,0.5,0.2,0.8
		c0,0.1,0,0.1,0,0.2c0,0.2-0.1,0.4-0.2,0.7c-0.2,0.3-0.5,0.5-0.8,0.5c-0.2,0-0.3,0.1-0.5,0.1c-0.1,0-0.3,0-0.4,0c0,0,0,0-0.1,0
		c-0.8-0.1-1.4-0.4-1.9-0.7c-0.2-0.2-0.4-0.4-0.5-0.7c0-0.1,0-0.2,0-0.4c0-0.2,0-0.4,0.1-0.5c0.3-0.5,0.6-0.8,1.1-1.1
		c0.1-0.1,0.2-0.2,0.4-0.2l0.2-0.2c0-0.1-0.1-0.1-0.1-0.2c-0.1-0.2-0.2-0.4-0.2-0.5c-0.1-0.2-0.2-0.4-0.3-0.6
		c-0.3-0.8-0.6-1.6-0.7-2.4c-0.1-0.5-0.2-1.1-0.2-1.7c0-0.3,0-0.7,0.1-1c0.1-0.7,0.3-1.3,0.7-2.1c0.4-0.7,0.8-1.3,1.2-1.8
		c0.4-0.4,0.8-0.8,1.3-1.1l0.2-0.1c0,0,0,0,0,0l0,0C320.6,183.1,320.7,183.1,320.9,183.1z M319.1,196.2c-0.1,0-0.1,0.1-0.2,0.1
		c-0.1,0-0.1,0.1-0.2,0.1c-0.1,0.1-0.2,0.1-0.2,0.2c-0.1,0.1-0.1,0.1-0.1,0.2l0,0c0.1,0.1,0.5,0.2,1.1,0.4h0.1v0c0,0,0-0.1,0-0.1
		c0,0,0,0,0-0.1c0-0.1,0-0.1-0.1-0.2c0-0.1-0.1-0.2-0.1-0.3C319.2,196.4,319.2,196.3,319.1,196.2z"/>
	<path class="st3" d="M336.8,188.1c0.1-0.1,0.3-0.2,0.5-0.2c0,0,0.1,0,0.2,0c0.1,0,0.3,0.1,0.4,0.3c0.1,0.1,0.1,0.2,0.1,0.4
		c0,0.1,0,0.2-0.1,0.4l-0.7,1c-0.5,0.7-1.2,1.6-2,2.5s-1.7,2-2.6,2.9c-0.7,0.7-1.4,1.3-2.1,1.9c-0.7,0.5-1.4,0.9-2.1,1.1
		c-0.2,0.1-0.5,0.1-0.7,0.1c-0.5,0-1-0.2-1.4-0.5c-0.6-0.5-0.9-1.3-1-2.4c0-0.2,0-0.4,0-0.5c0-0.5,0.1-1,0.2-1.6
		c0.2-0.8,0.4-1.6,0.7-2.4c0.3-0.8,0.5-1.5,0.7-2l0.3-0.8c0.2-0.3,0.4-0.5,0.6-0.5c0,0,0.1,0,0.3,0.1c0.1,0,0.3,0.2,0.4,0.4
		c0.1,0.1,0.1,0.3,0.1,0.4c0,0.1,0,0.1,0,0.2l-0.3,0.8c-0.2,0.5-0.5,1.2-0.7,2c-0.3,0.8-0.5,1.5-0.7,2.3c-0.1,0.6-0.2,1.1-0.2,1.4
		c0,0.1,0,0.2,0,0.2c0.2,0.8,0.3,1.3,0.6,1.5c0.1,0.1,0.2,0.1,0.3,0.1h0.1c0.1,0,0.2,0,0.4-0.1c0.9-0.3,2.1-1.1,3.5-2.6
		c0.9-0.9,1.7-1.9,2.5-2.8c0.8-1,1.4-1.8,1.9-2.5L336.8,188.1z M329.2,185.9c-0.2,0-0.4,0-0.6-0.1c-0.2-0.1-0.3-0.2-0.3-0.5
		c0.4-1.5,0.8-2.5,1.2-2.8h0.1c0.4,0,0.7,0.1,0.9,0.2c0.1,0,0.1,0.1,0.2,0.2l0,0.1l0,0.1c-0.2,0.4-0.6,1.3-1.2,2.8
		C329.4,185.9,329.3,185.9,329.2,185.9z"/>
	<path class="st3" d="M340.9,184.6h0.2c0.8,0,1.6,0.2,2.2,0.5c0.8,0.4,1.5,0.8,2,1.3c0.5,0.5,0.9,0.8,1,1c0.5-0.4,1.1-0.7,1.7-0.8
		h0.1c0.1,0,0.3,0,0.5,0.1c0.2,0,0.3,0.1,0.5,0.3c0.3,0.3,0.4,0.6,0.4,1c0,0.1,0,0.2,0,0.3c0,0.7-0.2,1.5-0.5,2.6
		c-0.3,1.2-0.7,2.5-1.1,3.9c-0.1,0.3-0.2,0.6-0.3,0.9c0.1-0.1,0.2-0.1,0.4-0.2c0.9-0.4,1.9-0.9,2.8-1.3c1.6-0.8,3.2-1.7,4.7-2.8
		c1.5-1.1,2.8-2.4,4-4c0.1,0,0.2,0,0.3,0h0.1c0.2,0,0.3,0,0.5,0.1c0.2,0.1,0.3,0.3,0.3,0.7c-1.3,1.8-2.7,3.2-4.3,4.4
		c-1.6,1.1-3.2,2.1-4.9,2.9c-0.8,0.4-1.7,0.8-2.5,1.2c-0.6,0.3-1.3,0.6-1.9,0.9c-0.8,2.7-1.6,5.3-2.4,7.8c-0.8,2.3-1.5,4.1-2.1,5.7
		c-0.3,0.7-0.6,1.4-0.9,1.8c0,0,0,0,0,0c-0.1,0.2-0.3,0.4-0.4,0.6c-0.1,0.2-0.3,0.3-0.6,0.4c-0.2,0.1-0.3,0.1-0.5,0.1
		c-0.1,0-0.2,0-0.4-0.1c-0.2,0-0.3-0.1-0.5-0.3c-0.4-0.3-0.7-0.7-1-1.1c-0.6-0.9-1-2.2-1.2-3.7c-0.1-0.4-0.1-0.8-0.1-1.2
		c0-1.2,0.3-2.5,0.8-4c0.5-1.5,1.7-3,3.5-4.4c1.5-1.1,3-2,4.7-2.8c0.6-2.1,1.2-4.1,1.7-6.1c0.3-1.1,0.4-1.8,0.4-2.2v-0.1
		c-0.2,0-0.5,0.2-1,0.5c-0.6,0.4-1.2,0.9-2,1.6c-0.4,0.4-0.9,0.8-1.3,1.2c-1.1,1-2.2,2-3.3,2.8c-0.8,0.6-1.5,1.1-2.2,1.4
		c-0.5,0.3-0.9,0.4-1.4,0.4c-0.3,0-0.5,0-0.8-0.1c-0.8-0.4-1.3-1-1.4-1.8c0-0.2,0-0.3,0-0.5c0-0.6,0.1-1.2,0.3-1.8
		c0.4-1.2,0.9-2.3,1.5-3.3l0.4-0.9c0.9-1.7,1.9-2.7,3.1-3C340.3,184.7,340.6,184.6,340.9,184.6z M341.5,186.1c-0.1,0-0.3,0-0.4,0
		c-0.2,0-0.4,0-0.7,0.1c-0.4,0.1-0.7,0.3-1.1,0.7c-0.4,0.3-0.7,0.9-1.1,1.6c-0.1,0.3-0.3,0.6-0.5,0.9c-0.6,1-1,2-1.4,3
		c-0.2,0.5-0.3,1-0.3,1.3c0,0.1,0,0.2,0,0.2c0,0.2,0.1,0.3,0.1,0.4c0.1,0.1,0.2,0.2,0.4,0.2h0.1c0.1,0,0.1,0,0.3,0s0.3-0.1,0.6-0.2
		c0.5-0.3,1.2-0.7,1.9-1.3c1-0.8,2.1-1.7,3.2-2.7c0.5-0.4,0.9-0.8,1.4-1.2c0.2-0.2,0.4-0.4,0.7-0.5c0.1-0.1,0.2-0.2,0.4-0.3
		c-0.2-0.2-0.5-0.5-0.9-0.9c-0.4-0.4-1-0.7-1.6-1C342.3,186.3,341.9,186.2,341.5,186.1z M345.3,198.7c-1.1,0.6-2.1,1.2-3.1,2
		c-1.6,1.3-2.6,2.6-3.1,4.1c-0.4,1-0.5,2.1-0.5,3c0,0.4,0,0.8,0.1,1.1c0.2,1.3,0.5,2.4,1,3.1c0.2,0.3,0.4,0.6,0.6,0.7l0,0
		c0.1-0.1,0.2-0.2,0.3-0.4c0.2-0.4,0.5-0.9,0.8-1.7c0.6-1.5,1.3-3.3,2.1-5.6C344,203,344.6,200.9,345.3,198.7z"/>
	<path class="st3" d="M368.4,170.1c0.1,0,0.2,0,0.2,0c0.2,0,0.4,0,0.5,0.1c0.5,0.2,0.8,0.6,1,1.1c0.1,0.2,0.1,0.5,0.1,0.8
		c0,0.3,0,0.5-0.1,0.8c-0.7,2.8-1.7,5.5-3.2,8c-1.4,2.6-2.8,4.7-4.1,6.5c-1.3,1.7-2.1,2.8-2.4,3c-0.2,2-0.3,3.6-0.3,4.8
		c0,1.3,0.1,2.2,0.4,2.7c0.1,0.2,0.1,0.3,0.2,0.4c0.1,0.1,0.1,0.1,0.2,0.2c0.1,0,0.1,0,0.2,0.1h0c0.2,0,0.6-0.2,1.2-0.5
		c1.2-0.9,2.5-2.4,3.8-4.3c1.4-2,2.5-3.7,3.3-5.3c0.2-0.1,0.4-0.1,0.6-0.1s0.3,0.1,0.4,0.2c0.1,0.1,0.2,0.3,0.3,0.7
		c-0.9,1.6-2,3.4-3.4,5.4c-1.4,2-2.8,3.6-4.2,4.7c-0.7,0.5-1.4,0.8-2.2,0.8H361c-0.8-0.1-1.4-0.6-1.8-1.5c-0.4-0.8-0.5-2-0.5-3.5
		c0-1.6,0.2-3.7,0.6-6.2v-0.1c1.1-4.9,2.3-8.8,3.5-11.5c1.2-2.8,2.3-4.7,3.4-5.8c0.5-0.6,1-1,1.6-1.2
		C367.9,170.2,368.1,170.2,368.4,170.1z M368.6,171.6c0,0-0.1,0-0.1,0c-0.1,0-0.1,0-0.2,0.1c-0.3,0.1-0.6,0.4-1.1,0.9
		c-0.8,0.8-1.8,2.4-2.8,4.8c-1.1,2.4-2.1,5.6-3.1,9.7c1.3-1.7,2.7-3.9,4.3-6.5c1.5-2.6,2.6-5.3,3.3-8c0-0.2,0.1-0.4,0.1-0.6
		c0-0.1,0-0.2,0-0.3C368.7,171.8,368.7,171.7,368.6,171.6C368.7,171.7,368.7,171.7,368.6,171.6C368.7,171.7,368.7,171.7,368.6,171.6
		C368.7,171.6,368.6,171.6,368.6,171.6L368.6,171.6z"/>
	<path class="st3" d="M378.8,188.1c0.1-0.1,0.3-0.2,0.5-0.2c0,0,0.1,0,0.2,0c0.1,0,0.3,0.1,0.4,0.3c0.1,0.1,0.1,0.2,0.1,0.4
		c0,0.1,0,0.2-0.1,0.4l-0.7,1c-0.5,0.7-1.2,1.6-2,2.5s-1.7,2-2.6,2.9c-0.7,0.7-1.4,1.3-2.1,1.9c-0.7,0.5-1.4,0.9-2.1,1.1
		c-0.2,0.1-0.5,0.1-0.7,0.1c-0.5,0-1-0.2-1.4-0.5c-0.6-0.5-0.9-1.3-1-2.4c0-0.2,0-0.4,0-0.5c0-0.5,0.1-1,0.2-1.6
		c0.2-0.8,0.4-1.6,0.7-2.4c0.3-0.8,0.5-1.5,0.7-2l0.3-0.8c0.2-0.3,0.4-0.5,0.6-0.5c0,0,0.1,0,0.3,0.1c0.1,0,0.3,0.2,0.4,0.4
		c0.1,0.1,0.1,0.3,0.1,0.4c0,0.1,0,0.1,0,0.2l-0.3,0.8c-0.2,0.5-0.5,1.2-0.7,2c-0.3,0.8-0.5,1.5-0.7,2.3c-0.1,0.6-0.2,1.1-0.2,1.4
		c0,0.1,0,0.2,0,0.2c0.2,0.8,0.3,1.3,0.6,1.5c0.1,0.1,0.2,0.1,0.3,0.1h0.1c0.1,0,0.2,0,0.4-0.1c0.9-0.3,2.1-1.1,3.5-2.6
		c0.9-0.9,1.7-1.9,2.5-2.8c0.8-1,1.4-1.8,1.9-2.5L378.8,188.1z M371.3,185.9c-0.2,0-0.4,0-0.6-0.1c-0.2-0.1-0.3-0.2-0.3-0.5
		c0.4-1.5,0.8-2.5,1.2-2.8h0.1c0.4,0,0.7,0.1,0.9,0.2c0.1,0,0.1,0.1,0.2,0.2l0,0.1l0,0.1c-0.2,0.4-0.6,1.3-1.2,2.8
		C371.5,185.9,371.4,185.9,371.3,185.9z"/>
	<path class="st3" d="M383.2,184.8c0.8,0.1,1.4,0.3,1.9,0.8c0.4,0.4,0.8,0.8,1.1,1.2c0.1-0.1,0.2-0.2,0.3-0.3
		c0.1-0.2,0.2-0.3,0.3-0.4c0.2-0.3,0.3-0.5,0.4-0.6c0,0,0,0,0-0.1c0,0,0.1-0.1,0.1-0.1c0,0,0,0,0,0c0,0,0,0,0,0v0h0l0,0
		c0.2-0.2,0.3-0.3,0.5-0.3c0,0,0.1,0,0.2,0c0.1,0,0.3,0.1,0.4,0.3c0.1,0.1,0.1,0.3,0.1,0.4c0,0.1,0,0.2,0,0.3l-0.3,1
		c-0.2,0.7-0.5,1.5-0.7,2.5c-0.3,1-0.5,2-0.7,3.1c-0.1,0.8-0.2,1.5-0.2,2.2v0.4c0,0.5,0,0.8,0.1,1.1c0,0.1,0.1,0.2,0.1,0.2
		c0,0,0,0.1,0.1,0.1c0,0,0,0,0.1,0h0.1c0.1,0,0.1,0,0.3,0c0.1,0,0.4-0.1,0.6-0.3c1.7-1,3.1-2.2,4.3-3.4c1.2-1.3,2.1-2.4,2.7-3.3
		l0.9-1.4c0.2-0.1,0.4-0.1,0.5-0.1c0.4,0,0.7,0.3,0.8,0.9l-0.6,0.9c-0.4,0.6-0.9,1.4-1.6,2.3c-0.7,0.9-1.6,1.9-2.7,2.9
		c-1.1,1-2.3,1.9-3.7,2.7c-0.6,0.4-1.1,0.5-1.7,0.5c-0.1,0-0.3,0-0.4,0c-0.3-0.1-0.6-0.3-0.8-0.5c-0.2-0.2-0.4-0.5-0.5-0.8
		c-0.2-0.5-0.2-1-0.2-1.6c0-0.1,0-0.4,0-0.8c0-0.4,0.1-1.1,0.3-1.9c0.2-1,0.4-2,0.6-2.9c-1.3,1.7-2.9,3.5-4.7,5.4
		c-0.8,0.9-1.6,1.3-2.4,1.3h-0.2c-0.5-0.1-0.8-0.3-1.1-0.7c-0.3-0.3-0.4-0.7-0.5-1.2c0-0.3-0.1-0.5-0.1-0.8c0-0.7,0.1-1.5,0.4-2.5
		c0.3-1,0.9-2.1,1.8-3.4c1.1-1.5,2.1-2.3,3.1-2.6c0.2-0.1,0.4-0.1,0.6-0.1H383.2z M382.8,186.3c-0.3,0.1-0.6,0.3-1,0.6
		c-0.4,0.3-0.8,0.8-1.3,1.5c-0.8,1.1-1.3,2.2-1.6,3.2c-0.2,0.8-0.3,1.4-0.3,1.9c0,0.2,0,0.3,0,0.4c0.1,0.3,0.1,0.4,0.2,0.5
		c0,0,0,0,0.1,0c0,0,0,0,0,0c0,0,0,0,0,0h0c0.1,0,0.2-0.1,0.4-0.2c0.2-0.1,0.5-0.3,0.9-0.7c1.9-2,3.5-3.9,4.9-5.6
		c-0.3-0.5-0.6-1-1-1.4c-0.3-0.3-0.6-0.4-1-0.4C383,186.3,382.9,186.3,382.8,186.3z"/>
</g>
<g class="st2">
	<path class="st3" d="M162.8,159.8c0.7,0,1.4,0.2,2.1,0.4c1.3,0.4,2.3,1.1,3,1.9c0.8,0.9,1.3,1.9,1.7,3c0.4,1.1,0.5,2.2,0.6,3.3
		c0,0.3,0,0.5,0,0.8c0,0.9-0.1,1.7-0.2,2.5c-0.2,1-0.4,1.9-0.7,2.6c-0.2,0.7-0.6,1.3-1,1.8h-0.2c-0.4,0-0.7-0.1-0.8-0.3
		s-0.2-0.5-0.2-0.8c0,0,0-0.1,0-0.1c0,0,0.1-0.1,0.2-0.3c0.1-0.2,0.2-0.4,0.4-0.8c0.2-0.6,0.4-1.4,0.6-2.3c0.1-0.7,0.2-1.4,0.2-2.1
		c0-1.2-0.2-2.4-0.5-3.7c-0.3-0.9-0.7-1.7-1.3-2.3c-0.6-0.7-1.3-1.1-2.3-1.5c-0.6-0.2-1.4-0.3-2.2-0.3c-0.5,0-1.2,0.1-2.3,0.2
		c-1,0.1-2.7,0.6-4.8,1.5c-2.8,1.2-5.3,2.9-7.6,5.1c-2.3,2.2-4.3,4.8-6.1,7.7c-1.7,2.9-3.1,5.9-4.2,9.1c-1.6,4.8-2.4,9.3-2.4,13.6
		c0,0,0,1.1,0,3.3c0,2.2,0.9,4.5,2.6,7c1.8,2.4,3.9,4,6.1,4.6c1.3,0.4,2.7,0.6,4.1,0.6c1,0,1.9-0.1,3-0.3c2.5-0.5,5-1.3,7.4-2.5
		c2.4-1.2,4.6-2.5,6.6-4c2-1.5,4.2-3.4,6.7-5.9c2.5-2.5,4.8-5,7.1-7.7c2.3-2.6,4.2-4.8,5.7-6.6l2.2-2.7c0.3-0.1,0.5-0.2,0.7-0.2
		c0.2,0,0.3,0.1,0.5,0.3c0.1,0.2,0.2,0.5,0.3,1l-2.3,2.8c-1.5,1.8-3.4,4.1-5.7,6.7c-2.3,2.6-4.7,5.2-7.2,7.7c-2.5,2.5-4.8,4.6-7,6.1
		c-2.1,1.5-4.4,2.9-6.9,4.1c-2.5,1.3-5.1,2.2-7.8,2.7c-1.1,0.2-2.1,0.3-3.2,0.3c-1.6,0-3.5-0.3-5.5-1c-2.1-0.7-4.1-2.3-6.2-5
		c-2-2.9-3-6.6-3-11.1c0,0,0-1.2,0-3.5c0-2.3,0.9-5.9,2.6-10.9c1.1-3.3,2.6-6.4,4.4-9.4c1.8-3,3.9-5.7,6.4-8
		c2.4-2.3,5.2-4.2,8.2-5.4c3-1.2,5.5-1.9,7.6-1.9C162.2,159.7,162.5,159.8,162.8,159.8z"/>
	<path class="st3" d="M189.1,164.7c0.3-0.2,0.5-0.3,0.8-0.3c0.4,0,0.7,0.2,0.9,0.7l-0.5,2.5c-0.4,1.7-0.8,3.8-1.3,6.3
		c-0.5,2.5-1,5.2-1.6,7.9c-0.8,3.9-1.4,7.1-1.8,9.8c1.3-2.1,2.7-3.7,4.2-5c0.5-0.4,1.1-0.8,1.7-1c0.3-0.1,0.5-0.1,0.8-0.1
		c0.3,0,0.7,0.1,1,0.2c1.1,0.6,1.7,2,1.9,4.1l0,0c0.1,1.1,0.2,1.9,0.4,2.4c0.1,0.2,0.2,0.4,0.3,0.5c0.1,0.1,0.2,0.2,0.2,0.2
		c0,0,0.1,0,0.1,0c0,0,0.1,0,0.3-0.1c0.3-0.1,0.6-0.3,1-0.7c0.8-0.7,1.5-1.6,2.4-2.8c0.8-1.1,1.6-2.2,2.2-3.2
		c0.1-0.2,0.2-0.4,0.3-0.5h0.1c0.2,0,0.4-0.1,0.6-0.1s0.4,0.1,0.5,0.2s0.2,0.4,0.3,0.8c-0.2,0.2-0.3,0.5-0.5,0.8
		c-0.6,1-1.3,2-2.1,3.1c-0.8,1.1-1.7,2.1-2.6,2.9c-0.5,0.5-1,0.8-1.6,1c-0.3,0.1-0.6,0.2-0.9,0.2c-0.3,0-0.7-0.1-1-0.2
		c-0.6-0.3-1-0.9-1.3-1.6c-0.3-0.7-0.5-1.7-0.6-2.9c-0.1-0.9-0.3-1.6-0.5-2s-0.4-0.6-0.5-0.7c0,0-0.1,0-0.2,0h-0.1
		c-0.1,0-0.1,0-0.3,0c-0.3,0.1-0.7,0.3-1.1,0.7c-0.9,0.7-1.9,1.8-2.9,3.2c-1,1.4-2.1,3.9-3.2,7.6c0,0,0,0,0,0c0,0.1-0.1,0.2-0.1,0.3
		c0,0.1-0.1,0.1-0.2,0.2c0,0,0,0,0,0c0,0.1-0.1,0.1-0.2,0.2c-0.1,0.1-0.3,0.1-0.5,0.1c-0.1,0-0.2,0-0.4-0.1
		c-0.1-0.1-0.2-0.1-0.3-0.2c-0.1-0.1-0.2-0.2-0.2-0.3c0-0.1,0-0.1,0-0.2s0-0.1,0-0.1v-0.4c0-0.6,0.3-2.7,0.9-6.3
		c0.5-2.8,1.1-6.3,2-10.5c0.5-2.7,1-5.4,1.6-7.9c0.5-2.5,0.9-4.6,1.3-6.3L189.1,164.7z"/>
	<path class="st3" d="M206.9,182.9c0.7,0,1.4,0.3,1.9,0.9c0.4,0.5,0.6,1.1,0.6,1.7v0.1c0,0.6-0.2,1.2-0.6,1.7
		c-0.7,1-1.6,1.8-2.7,2.6c-1.1,0.7-2,1.3-2.9,1.7c-0.9,0.4-1.4,0.7-1.5,0.7c0,1.2,0.6,2.2,1.8,3.1c0.7,0.4,1.4,0.7,2.1,0.7
		c0.6,0,1.2-0.2,1.8-0.5c1.4-0.7,2.8-1.8,4.1-3.3c0.9-1,1.6-1.9,2.3-2.9c0.7-0.9,1.2-1.7,1.5-2.4l0.6-1c0.2-0.2,0.4-0.2,0.6-0.2
		c0.1,0,0.2,0,0.3,0c0.2,0,0.3,0.1,0.5,0.3c0.1,0.2,0.2,0.3,0.2,0.5c0,0.1,0,0.1,0,0.2l-0.6,1c-0.4,0.7-0.9,1.5-1.6,2.5
		c-0.7,1-1.5,2-2.4,3c-1.4,1.6-2.9,2.8-4.7,3.7c-0.8,0.4-1.7,0.6-2.6,0.6c-0.1,0-0.4,0-0.9,0c-0.5,0-1.2-0.3-2.1-0.9
		c-0.9-0.6-1.6-1.3-2-2.2c-0.4-0.8-0.6-1.7-0.6-2.6c0-1.8,0.6-3.5,1.6-5.1c1-1.6,2.1-2.7,3.4-3.5
		C205.6,183.1,206.2,182.9,206.9,182.9z M206.9,184.6L206.9,184.6c-0.3,0-0.6,0.1-1.1,0.3c-1,0.6-1.9,1.5-2.7,2.9
		c-0.4,0.7-0.8,1.5-1,2.3c0.9-0.4,1.9-1,3.1-1.8c1-0.7,1.7-1.4,2.2-2c0.2-0.3,0.3-0.6,0.3-0.8c0-0.1,0-0.2,0-0.3
		c0-0.1-0.1-0.2-0.2-0.3c-0.1-0.1-0.2-0.2-0.2-0.2C207.1,184.7,207,184.6,206.9,184.6z"/>
	<path class="st3" d="M225.2,165.8c0.4,0.1,0.7,0.2,1,0.5c0.3,0.2,0.5,0.5,0.6,0.9c0.2,0.5,0.3,1.1,0.3,1.9c0,0.2,0,0.3,0,0.5
		c0,1.9-0.8,4.4-2.3,7.5c-1.5,3.1-4,6.6-7.5,10.5c-1.2,3.9-2.3,8.1-3.3,12.3c1.7-0.9,3.5-2.1,5.4-3.5c2.6-1.8,5-3.7,7.4-5.7
		s4.2-3.8,5.5-5.3c0,0,0.1,0,0.2,0h0.1c0.3,0,0.5,0.1,0.8,0.2c0.2,0.1,0.3,0.4,0.3,0.9c-1.4,1.7-3.3,3.5-5.7,5.5
		c-2.4,2-4.9,4-7.5,5.8c-2.5,1.8-4.8,3.2-6.9,4.3c0.4,0.7,0.7,1.6,1,2.6c0.6,2,1.1,4.3,1.5,7c0.4,2.7,0.6,5.5,0.7,8.3
		c0,0.4,0,0.8,0,1.1c0,2.4-0.2,4.7-0.5,6.9c-0.4,2.4-0.9,4.1-1.6,5.2c-0.3,0.6-0.8,1-1.3,1.2c-0.2,0.1-0.4,0.1-0.6,0.1
		c-0.1,0-0.2,0-0.4-0.1s-0.4-0.2-0.7-0.3c-0.9-0.7-1.5-2-1.8-3.8c-0.4-1.8-0.7-4.2-0.7-7.2V223c0-2.9,0.2-6.1,0.7-9.5
		s1.1-6.9,1.8-10.5c-0.1,0-0.3,0.1-0.4,0.2c-0.2,0.1-0.4,0.2-0.6,0.2c-0.4,0.2-0.9,0.3-1.3,0.3c-0.3,0-0.7-0.1-1-0.2
		c-1-0.4-1.5-0.9-1.7-1.8v-0.1c0-0.4,0.1-0.8,0.3-1c0.2-0.3,0.5-0.5,0.8-0.6c0.5-0.2,1.1-0.3,1.7-0.3c0.1,0,0.4,0,0.8,0
		c0.4,0,1,0.3,1.8,0.7c1.6-6.8,3.3-13,5.2-18.7c1.9-5.7,3.4-9.9,4.6-12.7v0c0.5-1,1-1.8,1.5-2.4c0.5-0.6,1.1-0.9,1.8-0.9H225.2z
		 M209.8,201.5h-0.3c-0.4,0-0.7,0.1-1,0.2l0,0h0c0,0,0,0,0,0c0,0,0.1,0.1,0.2,0.1c0.1,0,0.2,0.1,0.3,0.1h0.1c0.1,0,0.2,0,0.3,0
		s0.4,0,0.7-0.1c0.1,0,0.1,0,0.2-0.1c0.1,0,0.1-0.1,0.2-0.1C210.3,201.5,210,201.5,209.8,201.5z M212.9,205.3
		c-0.7,3.3-1.2,6.4-1.6,9.5c-0.4,2.9-0.6,5.5-0.6,8v0.6c0,2.9,0.3,5.1,0.7,6.8c0.2,0.8,0.4,1.5,0.7,1.9s0.4,0.7,0.5,0.8c0,0,0,0,0,0
		v0c0,0,0.1-0.1,0.2-0.1c0.1-0.1,0.2-0.2,0.3-0.4c0.5-0.7,1-2.3,1.4-4.6c0.3-2,0.5-4.2,0.5-6.5c0-0.4,0-1.4-0.1-3
		c0-1.6-0.3-3.7-0.6-6.3C214,209.4,213.5,207.1,212.9,205.3z M225,167.6c0,0-0.1,0-0.2,0.1c-0.1,0-0.2,0.1-0.3,0.3
		c-0.3,0.3-0.7,1-1.1,1.9c-1.2,2.9-2.8,7.4-4.8,13.5c2.4-3.1,4.1-5.9,5.1-8.2c1-2.4,1.5-4.2,1.6-5.6v-0.2c0-0.7-0.1-1.1-0.2-1.4
		c0,0,0-0.1,0-0.1C225.1,167.7,225.1,167.6,225,167.6C225.1,167.6,225.1,167.6,225,167.6C225,167.6,225,167.6,225,167.6
		C225,167.6,225,167.5,225,167.6C225,167.5,225,167.6,225,167.6z"/>
</g>
<g>
	<g class="st2">
		<path class="st3" d="M114.5,183.1h0.2c0.6,0,1.2,0.1,1.8,0.3c1.4,0.6,2.3,1.6,2.6,3c0.1,0.5,0.2,1,0.2,1.5c0,0.9-0.2,1.9-0.5,2.9
			c-0.4,1.1-0.9,2.1-1.6,3.1c0.7-0.3,1.4-0.6,2.1-1.1c1.2-0.8,2.2-1.6,3.2-2.4c0.9-0.8,1.7-1.6,2.3-2.2l0.8-0.9
			c0.3,0,0.6,0.1,0.9,0.2s0.4,0.5,0.5,0.9l-0.9,1c-0.6,0.7-1.4,1.4-2.4,2.3c-1,0.9-2.1,1.8-3.4,2.6c-1.6,1.1-3.4,1.8-5.2,2.1
			c-0.9,0.8-1.9,1.5-3,2c-0.8,0.4-1.5,0.6-2.2,0.6c-0.1,0-0.2,0-0.3,0c-0.8-0.1-1.4-0.4-1.8-1c-0.4-0.5-0.7-1.1-0.8-1.8
			c-0.1-0.5-0.1-1.1-0.1-1.6v-0.5c0.1-1.9,0.3-3.4,0.6-4.6c0-0.2,0.1-0.4,0.1-0.6l0-0.2c0,0,0-0.1,0-0.1c0-0.1,0-0.1,0-0.2
			c0-0.1,0-0.1,0-0.2v-0.1l0,0c0.3-0.9,0.7-1.7,1.3-2.4c0.7-0.8,1.4-1.5,2.3-2C112.5,183.4,113.4,183.1,114.5,183.1z M108.7,193.8
			v0.2c0,0.1,0,0.1,0,0.2c0,1.3,0.2,2.2,0.5,2.7c0.1,0.1,0.2,0.2,0.2,0.2c0.1,0,0.2,0.1,0.4,0.1h0.1c0.3,0,0.8-0.1,1.4-0.4
			c0.2-0.1,0.4-0.2,0.6-0.4c0.1-0.1,0.2-0.2,0.3-0.2C110.9,196,109.8,195.1,108.7,193.8z M114.5,184.9c-1.5,0.1-2.8,0.8-3.9,2.1
			c-0.5,0.6-0.8,1.2-1.1,1.9c0,0,0,0.1,0,0.2c0,0.1-0.1,0.2-0.1,0.4c0,0.2-0.1,0.3-0.1,0.5c0,0.2,0,0.3,0,0.5c0,0.7,0.2,1.3,0.6,1.9
			c0.6,1,1.3,1.6,2,2c0.6,0.3,1.3,0.5,2,0.5h0.3c1.4-1.4,2.4-2.9,2.9-4.6c0.3-0.9,0.4-1.6,0.4-2.3c0-0.4,0-0.7-0.1-1.1
			c-0.2-0.9-0.7-1.4-1.5-1.7c-0.4-0.2-0.9-0.2-1.3-0.2H114.5z"/>
	</g>
	<g class="st2">
		<path class="st3" d="M90.2,152.8c0.3-0.1,0.5-0.2,0.7-0.2c0.4,0,0.8,0.3,1,0.8l-3,9.2c-2,6.2-4.2,13.4-6.7,21.6
			c-2.5,8.2-4.5,15.8-6.1,22.8c-0.4,1.9-0.8,3.6-1.1,5.2c5.1-1.9,11.5-4.1,19.2-6.6c6.7-2.2,12.8-4,18.3-5.4
			c2.7-0.7,4.9-1.1,6.8-1.4c0.7-0.1,1.4-0.1,1.9-0.1h0.5c0.7,0,1.3,0.2,1.8,0.5c0,0.1,0,0.2,0,0.4c0,0.1,0,0.2,0,0.3
			c0,0.1,0,0.1,0,0.2c0,0.1-0.1,0.2-0.2,0.3c-0.2,0.1-0.4,0.2-0.8,0.3c0,0-0.1,0-0.3-0.1c-0.2,0-0.4-0.1-0.6-0.1h-0.2
			c-0.5,0-1.1,0-1.9,0.1c-1.8,0.2-4,0.7-6.6,1.3c-5.5,1.4-11.5,3.2-18.2,5.4c-8.2,2.7-15,5.1-20.1,7c-0.1,0.5-0.1,0.9-0.2,1.3
			c-0.1,1.3-0.2,2.3-0.2,3.2c0,0.7,0.1,1.2,0.2,1.6l-1.7,0.6c-0.2-0.7-0.3-1.5-0.3-2.5c0-0.9,0.1-1.9,0.3-3.1c0-0.1,0-0.2,0-0.3
			c0,0,0-0.1,0-0.1l-3.1,1.1l-0.6-1.7l4-1.5c0.3-1.9,0.7-4,1.3-6.3c1.6-7,3.7-14.7,6.2-22.9c2.5-8.3,4.7-15.5,6.7-21.7L90.2,152.8z"
			/>
	</g>
</g>
</svg>
